<?xml version="1.0" encoding="iso-8859-1"?>
<!-- Generator: Adobe Illustrator 19.0.0, SVG Export Plug-In . SVG Version: 6.00 Build 0)  -->
<svg width='30px' height='30px' version="1.1" id="Layer_1" xmlns="http://www.w3.org/2000/svg" xmlns:xlink="http://www.w3.org/1999/xlink" x="0px" y="0px"
	 viewBox="0 0 512 512" style="enable-background:new 0 0 512 512;" xml:space="preserve">
<g>
	<g>
		<path d="M432.206,127.707C385.018,116.292,322.441,110.006,256,110.006s-129.018,6.286-176.206,17.701
			C26.846,140.515,0,157.996,0,179.664c0,68.251,26.208,125.466,75.789,165.461c45.464,36.673,109.464,56.87,180.211,56.87
			s134.748-20.196,180.211-56.87C485.792,305.131,512,247.915,512,179.664C512,157.996,485.154,140.515,432.206,127.707z
			 M354.622,223.863c-2.919,0.313-5.868,0.612-8.841,0.898c-7.764-17.997-25.836-30.322-45.925-30.322
			c-5.633,0-10.199,4.567-10.199,10.199v23.718c-1.695,0.057-3.395,0.11-5.1,0.159v-20.817c0-2.489-0.893-4.767-2.374-6.538
			c5.303-5.315,9.406-11.818,11.898-19.065c18.093,0.688,35.734,1.868,52.672,3.519
			C344.154,198.652,346.781,212.526,354.622,223.863z M324.691,226.522c-4.826,0.345-9.707,0.653-14.635,0.925V216.68
			C314.62,218.38,320.855,222.535,324.691,226.522z M257.02,138.116c11.3,4.163,19.378,15.038,19.378,27.765
			s-8.079,23.601-19.378,27.764V138.116z M264.159,217.897v8.159h-50.996v-8.159H264.159z M236.62,197.498h-16.706
			c-0.664-5.411-2.187-10.559-4.443-15.296c7.004-0.284,14.058-0.499,21.149-0.634V197.498z M160.128,135.134
			c24.068-2.498,49.833-4.04,76.494-4.544v30.576c-12.753,0.239-25.419,0.713-37.815,1.419c-8.087-5.63-17.902-8.944-28.48-8.944
			c-3.438,0-6.855,0.372-10.199,1.069V135.134z M160.128,175.863c3.249-1.19,6.705-1.823,10.199-1.823
			c12.727,0,23.602,8.08,27.765,19.378h-37.964V175.863z M131.57,142.423h8.159v50.996h-8.159V142.423z M121.371,213.817h71.394
			v13.079c-52.867-3.448-99.663-11.129-131.823-21.746c13.983-4.611,30.907-8.731,50.229-12.206v10.673
			C111.171,209.25,115.737,213.817,121.371,213.817z M84.59,147.534c8.37-2.025,17.257-3.881,26.581-5.566v30.262
			c-31.998,5.553-58.385,12.907-77.033,21.461c-10.038-5.832-13.74-10.964-13.74-14.027
			C20.398,173.921,33.814,159.815,84.59,147.534z M256,381.596c-108.256,0-217.409-53.212-233.553-171.125
			c2.116,1.282,4.38,2.538,6.792,3.766C71.742,235.879,158.632,249.323,256,249.323c97.367,0,184.256-13.445,226.761-35.086
			c2.412-1.228,4.675-2.485,6.792-3.766C473.409,328.383,364.256,381.596,256,381.596z M368.884,207.879
			c-5.046-10.935-3.069-24.336,5.931-33.336c5.766-5.766,13.341-8.649,20.915-8.649c4.247,0,8.493,0.907,12.422,2.719
			L368.884,207.879z M410.77,194.841c15.171,3.044,28.717,6.525,40.248,10.323c-17.768,5.861-39.998,10.827-65.25,14.68
			L410.77,194.841z M477.865,193.69c-13.124-6.037-29.858-11.401-49.922-16.021l3.125-3.125c3.983-3.983,3.983-10.441,0-14.425
			c-19.486-19.486-51.191-19.486-70.677,0c-1.851,1.851-3.525,3.815-5.024,5.865c-18.808-1.989-38.503-3.404-58.753-4.21
			c-0.985-12.052-6.255-22.907-14.293-31.028c54.889,1.417,105.661,7.251,145.088,16.788c50.777,12.282,64.193,26.387,64.193,32.131
			C491.602,182.727,487.901,187.858,477.865,193.69z"/>
	</g>
</g>
<g>
	<g>
		<path d="M182.352,338.988c-29.459-8.549-54.525-22.143-74.5-40.404c-4.157-3.8-10.608-3.512-14.409,0.647
			c-3.8,4.157-3.512,10.608,0.647,14.409c22.305,20.39,50.087,35.51,82.578,44.939c0.95,0.276,1.906,0.407,2.848,0.407
			c4.422,0,8.496-2.9,9.791-7.36C190.874,346.216,187.76,340.558,182.352,338.988z"/>
	</g>
</g>
<g>
	<g>
		<path d="M83.975,270.769c-4.081-6.154-7.733-12.689-10.855-19.421c-2.369-5.111-8.433-7.331-13.544-4.963
			c-5.11,2.369-7.332,8.434-4.963,13.543c3.553,7.666,7.713,15.106,12.361,22.116c1.963,2.96,5.205,4.563,8.509,4.563
			c1.936,0,3.893-0.551,5.628-1.7C85.807,281.793,87.088,275.464,83.975,270.769z"/>
	</g>
</g>
<g>
</g>
<g>
</g>
<g>
</g>
<g>
</g>
<g>
</g>
<g>
</g>
<g>
</g>
<g>
</g>
<g>
</g>
<g>
</g>
<g>
</g>
<g>
</g>
<g>
</g>
<g>
</g>
<g>
</g>
</svg>
