<?xml version="1.0" encoding="iso-8859-1"?>
<!-- Generator: Adobe Illustrator 16.0.0, SVG Export Plug-In . SVG Version: 6.00 Build 0)  -->
<!DOCTYPE svg PUBLIC "-//W3C//DTD SVG 1.1//EN" "http://www.w3.org/Graphics/SVG/1.1/DTD/svg11.dtd">
<svg version="1.1" id="Capa_1" xmlns="http://www.w3.org/2000/svg" xmlns:xlink="http://www.w3.org/1999/xlink" x="0px" y="0px"
	 width="30px" height="30px" viewBox="0 0 361.906 361.907" style="enable-background:new 0 0 361.906 361.907;"
	 xml:space="preserve">
<g>
	<g>
		<g id="Layer_5_7_">
			<g>
				<path d="M337.207,231.208c-0.002,0-0.004,0-0.006,0c-2.771,0-5.693-0.188-8.758-0.52c-0.619-0.064-1.863-0.239-2.623,1.147
					c-9.902,18.532-26.506,29.468-46.275,29.468H82.365c-19.77,0-36.285-10.418-46.326-29.556c-0.709-1.261-1.676-1.158-2.16-1.104
					c-3.215,0.36-6.279,0.563-9.172,0.563c-2.971,0-5.701-0.229-8.221-0.644c-0.762-0.126-1.857-0.304-1.744,1.408
					c6.463,26.852,30.434,50.255,58.104,50.255h216.221c27.67,0,50.514-21.528,57.621-48.586c0-2.817-2.26-2.896-3.973-2.715
					C340.959,231.112,339.127,231.208,337.207,231.208z"/>
				<path d="M180.953,79.68C81.014,79.68,0,128.788,0,189.37c0,60.577,81.014,0,180.953,0c99.938,0,180.953,60.577,180.953,0
					C361.906,128.788,280.891,79.68,180.953,79.68z M307.711,164.988c-2.992,1.984-7.023,1.167-9.01-1.825
					c-11.922-17.977-50.137-48.401-117.748-48.401c-68.016,0-106.752,31.644-117.73,48.375c-1.248,1.902-3.324,2.935-5.441,2.936
					c-1.223,0-2.461-0.346-3.561-1.066c-3-1.97-3.838-6-1.867-9.001c13.221-20.146,55.184-54.243,128.6-54.243
					c73.119,0,115.229,34.08,128.582,54.217C311.52,158.971,310.703,163.004,307.711,164.988z"/>
			</g>
		</g>
	</g>
</g>
<g>
</g>
<g>
</g>
<g>
</g>
<g>
</g>
<g>
</g>
<g>
</g>
<g>
</g>
<g>
</g>
<g>
</g>
<g>
</g>
<g>
</g>
<g>
</g>
<g>
</g>
<g>
</g>
<g>
</g>
</svg>
