<?xml version="1.0" encoding="iso-8859-1"?>
<!-- Generator: Adobe Illustrator 19.0.0, SVG Export Plug-In . SVG Version: 6.00 Build 0)  -->
<svg width="40px"  version="1.1" id="Layer_1" xmlns="http://www.w3.org/2000/svg" xmlns:xlink="http://www.w3.org/1999/xlink" x="0px" y="0px"
	 viewBox="0 0 290.626 290.626" style="enable-background:new 0 0 290.626 290.626;" xml:space="preserve">
<g>
	<g>
		<g>
			<path d="M60.938,23.438C25.631,23.438,0,47.095,0,79.688v65.625c0,32.592,25.631,56.25,60.938,56.25s60.938-23.658,60.938-56.25
				V79.688C121.875,47.095,96.244,23.438,60.938,23.438z M112.5,145.313c0,27.159-21.684,46.875-51.563,46.875
				c-28.641,0-49.692-18.131-51.394-43.556c10.537,15.272,29.006,24.806,51.394,24.806v-9.375
				c-29.878,0-51.563-19.716-51.563-46.875v-6.314c10.509,15.417,29.048,25.064,51.563,25.064s41.053-9.647,51.563-25.064V145.313z
				 M60.938,126.563c-29.878,0-51.563-19.716-51.563-46.875s21.684-46.875,51.563-46.875c29.879,0,51.562,19.715,51.562,46.875
				C112.5,106.848,90.816,126.563,60.938,126.563z"/>
			<path d="M60.938,51.563c-20.963,0-33.984,10.777-33.984,28.125c0,17.348,13.022,28.125,33.984,28.125
				c20.962,0,33.984-10.777,33.984-28.125C94.922,62.34,81.9,51.563,60.938,51.563z M36.328,79.688c0-5.086,1.57-8.789,3.947-11.508
				l13.158,29.602C45.577,96.375,36.328,92.1,36.328,79.688z M48.225,62.972c4.627-1.692,9.558-2.034,12.712-2.034
				c3.919,0,10.585,0.539,15.999,3.539L54.572,77.255L48.225,62.972z M63.938,98.334l-5.541-12.469l25.345-14.484
				c1.125,2.259,1.805,4.983,1.805,8.306C85.547,94.608,72.178,97.791,63.938,98.334z"/>
			<path d="M290.339,142.298c0.056-0.202,0.112-0.403,0.131-0.469l-0.178-0.047c-1.622-11.55-10.959-19.908-23.105-19.908h-75
				c-6.905,0-12.666,1.959-17.377,6.061l-31.41,31.412c-4.903,3.863-7.462,10.073-7.462,18.778v65.625
				c0,13.364,10.073,23.438,23.438,23.438h75c8.705,0,14.916-2.559,18.778-7.462l31.364-31.364
				c4.106-3.984,6.108-9.684,6.108-17.423v-65.625C290.625,144.272,290.456,143.292,290.339,142.298z M247.983,131.25
				c-6.192,9.319-8.105,18.656-8.672,23.925c-0.206-0.042-0.427-0.042-0.638-0.08c-0.759-5.559-3.066-15.605-9.881-23.845H247.983z
				 M214.378,131.25c10.106,5.587,13.57,16.945,14.728,23.438h-6.614c-2.859-4.584-9.867-14.855-19.837-23.438H214.378z
				 M181.195,134.794c1.692-1.467,3.75-2.419,6.136-2.972c10.533,5.934,18.984,16.059,23.85,22.866h-49.87L181.195,134.794z
				 M248.437,243.75c0,4.252-0.666,7.327-2.105,9.539l-1.209,1.209l0.178,0.178c-2.221,2.218-5.737,3.137-10.926,3.137h-75
				c-8.147,0-14.063-5.916-14.063-14.063v-65.625c0-5.189,0.919-8.705,3.136-10.927l0.178,0.178l1.209-1.209
				c2.208-1.439,5.288-2.105,9.539-2.105h75c8.147,0,14.063,5.916,14.063,14.063V243.75z M248.437,159.215
				c-0.009-0.53-0.061-15.422,11.419-27.966h7.331c6.826,0.001,12.033,4.182,13.561,10.318c-1.997,6.15-8.873,24.488-22.936,36.698
				v-0.141C257.812,170.151,254.174,163.401,248.437,159.215z M257.812,189.998c10.678-7.125,18.281-17.241,23.438-26.414v9.272
				c-0.952,3.717-7.805,28.294-23.438,39.483V189.998z M281.251,210.937c-0.001,5.138-1.042,8.536-3.315,10.749l-20.123,20.123
				v-18.563c10.688-5.391,18.286-15.337,23.438-24.914V210.937z"/>
			<path d="M201.563,182.813h-9.375c-12.923,0-23.438,10.514-23.438,23.438v9.375c0,12.923,10.514,23.438,23.438,23.438h9.375
				c12.923,0,23.438-10.514,23.438-23.438v-9.375C225,193.327,214.486,182.813,201.563,182.813z M178.308,217.416
				c4.744,1.969,10.983,5.709,13.116,12.197C184.631,229.238,179.161,224.063,178.308,217.416z M188.644,212.312
				c-3.511-2.311-7.238-3.956-10.514-4.987v-1.073c-0.005-7.755,6.304-14.064,14.058-14.064h9.375c1.936,0,3.778,0.394,5.461,1.102
				C196.036,196.229,190.726,204.685,188.644,212.312z M201.563,229.688h-0.483c-0.703-3.703-2.189-6.933-4.2-9.694
				c0.037-1.186,0.333-5.32,2.442-9.384c3.455,5.536,9.961,8.194,15.595,9.197C213.127,225.511,207.848,229.688,201.563,229.688z
				 M215.624,210.389c-3.594-0.755-8.071-2.578-9.126-6.886c2.208-1.087,4.936-1.781,8.278-1.889
				c0.516,1.458,0.848,3.005,0.848,4.636V210.389z"/>
			<rect x="159.375" y="243.75" width="18.75" height="9.375"/>
			<rect x="187.5" y="243.75" width="9.375" height="9.375"/>
			<rect x="206.25" y="243.75" width="9.375" height="9.375"/>
		</g>
	</g>
</g>
<g>
</g>
<g>
</g>
<g>
</g>
<g>
</g>
<g>
</g>
<g>
</g>
<g>
</g>
<g>
</g>
<g>
</g>
<g>
</g>
<g>
</g>
<g>
</g>
<g>
</g>
<g>
</g>
<g>
</g>
</svg>
