<?xml version="1.0" encoding="iso-8859-1"?>
<!-- Generator: Adobe Illustrator 16.0.0, SVG Export Plug-In . SVG Version: 6.00 Build 0)  -->
<!DOCTYPE svg PUBLIC "-//W3C//DTD SVG 1.1//EN" "http://www.w3.org/Graphics/SVG/1.1/DTD/svg11.dtd">
<svg version="1.1" id="Capa_1" xmlns="http://www.w3.org/2000/svg" xmlns:xlink="http://www.w3.org/1999/xlink" x="0px" y="0px"
	 width="30px" height="30px" viewBox="0 0 174.026 174.026" style="enable-background:new 0 0 174.026 174.026;"
	 xml:space="preserve">
<g>
	<g>
		<path d="M4.242,174.026c-0.864,0-1.729-0.329-2.388-0.988c-1.317-1.317-1.317-3.455,0-4.772l36.594-36.594
			c1.317-1.316,3.455-1.316,4.772,0c1.318,1.319,1.318,3.457,0,4.773L6.628,173.038C5.97,173.697,5.105,174.026,4.242,174.026z"/>
		<g>
			<path d="M165.838,7.334C161.109,2.605,154.821,0,148.133,0c-6.688,0-12.975,2.605-17.705,7.334L46.301,91.461
				c-9.762,9.762-9.762,25.646,0,35.411c4.73,4.729,11.019,7.334,17.706,7.334c6.688,0,12.977-2.604,17.705-7.334l84.126-84.125
				C175.602,32.983,175.601,17.097,165.838,7.334z M161.065,37.972l-84.126,84.125c-3.453,3.455-8.047,5.356-12.933,5.356
				c-4.885,0-9.479-1.901-12.933-5.356c-7.131-7.131-7.131-18.733,0-25.865L135.2,12.107c3.454-3.455,8.047-5.357,12.932-5.357
				s9.479,1.902,12.933,5.357c3.454,3.455,5.357,8.047,5.357,12.933C166.423,29.925,164.521,34.518,161.065,37.972z"/>
			<path d="M150.393,25.961c-1.883,1.884-3.591,1.922-6.696,1.832c-3.226-0.094-7.639-0.224-11.668,3.806
				c-4.03,4.03-3.901,8.445-3.807,11.668c0.091,3.106,0.051,4.815-1.832,6.698c-1.883,1.882-3.592,1.922-6.695,1.831
				c-3.226-0.094-7.639-0.225-11.668,3.805c-4.03,4.03-3.9,8.445-3.807,11.668c0.091,3.106,0.051,4.814-1.831,6.696
				c-1.882,1.883-3.59,1.924-6.695,1.831c-3.225-0.095-7.639-0.225-11.668,3.805c-4.03,4.03-3.9,8.444-3.806,11.668
				c0.092,3.105,0.052,4.813-1.831,6.695c-1.882,1.883-3.591,1.922-6.694,1.83c-3.224-0.094-7.639-0.226-11.667,3.805
				c-1.318,1.318-1.318,3.455,0,4.773c0.658,0.659,1.522,0.988,2.386,0.988c0.864,0,1.728-0.33,2.386-0.989
				c1.882-1.882,3.591-1.921,6.695-1.83c3.224,0.095,7.638,0.226,11.667-3.804c4.029-4.03,3.899-8.445,3.805-11.668
				c-0.091-3.105-0.051-4.813,1.831-6.696c1.882-1.883,3.59-1.924,6.697-1.832c3.222,0.095,7.637,0.225,11.667-3.805
				c4.029-4.03,3.899-8.445,3.805-11.668c-0.091-3.106-0.051-4.814,1.831-6.696c1.883-1.883,3.591-1.922,6.696-1.831
				c3.224,0.095,7.638,0.224,11.668-3.805c4.029-4.031,3.9-8.445,3.806-11.669c-0.091-3.107-0.051-4.815,1.832-6.698
				c1.883-1.883,3.591-1.921,6.697-1.832c3.223,0.094,7.638,0.224,11.668-3.806c1.317-1.318,1.317-3.455,0-4.773
				C153.848,24.643,151.711,24.643,150.393,25.961z"/>
		</g>
	</g>
</g>
<g>
</g>
<g>
</g>
<g>
</g>
<g>
</g>
<g>
</g>
<g>
</g>
<g>
</g>
<g>
</g>
<g>
</g>
<g>
</g>
<g>
</g>
<g>
</g>
<g>
</g>
<g>
</g>
<g>
</g>
</svg>
