<?xml version="1.0" encoding="iso-8859-1"?>
<!-- Generator: Adobe Illustrator 19.0.0, SVG Export Plug-In . SVG Version: 6.00 Build 0)  -->
<svg version="1.1" id="Layer_1" xmlns="http://www.w3.org/2000/svg" xmlns:xlink="http://www.w3.org/1999/xlink" x="0px" y="0px"
	 viewBox="0 0 512 512" style="enable-background:new 0 0 512 512;" xml:space="preserve">
<g>
	<g>
		<path d="M488,359.88c-2.212,0-4,1.792-4,4v111.76c0,15.572-12.564,28.24-28,28.24H36c-15.436,0-28-12.668-28-28.24V159.88
			c0-2.208-1.788-4-4-4s-4,1.792-4,4v315.76c0,19.984,16.148,36.24,36,36.24h420c19.852,0,36-16.256,36-36.24V363.88
			C492,361.672,490.212,359.88,488,359.88z"/>
	</g>
</g>
<g>
	<g>
		<path d="M456,123.88H36c-2.212,0-4,1.792-4,4s1.788,4,4,4h420c15.436,0,28,12.452,28,27.76v108.24c0,2.208,1.788,4,4,4
			c2.212,0,4-1.792,4-4V159.64C492,139.92,475.852,123.88,456,123.88z"/>
	</g>
</g>
<g>
	<g>
		<path d="M456,103.88H36c-2.212,0-4,1.792-4,4s1.788,4,4,4h420c15.436,0,28,12.452,28,27.76v108.24c0,2.208,1.788,4,4,4
			c2.212,0,4-1.792,4-4V139.64C492,119.92,475.852,103.88,456,103.88z"/>
	</g>
</g>
<g>
	<g>
		<path d="M36,123.64c-15.436,0-28-12.56-28-28c0-2.208-1.788-4-4-4s-4,1.792-4,4c0,19.848,16.148,36,36,36c2.212,0,4-1.792,4-4
			C40,125.432,38.212,123.64,36,123.64z"/>
	</g>
</g>
<g>
	<g>
		<path d="M36,171.64c-15.436,0-28-12.56-28-28c0-2.208-1.788-4-4-4s-4,1.792-4,4c0,19.848,16.148,36,36,36c2.212,0,4-1.792,4-4
			C40,173.432,38.212,171.64,36,171.64z"/>
	</g>
</g>
<g>
	<g>
		<path d="M429.988,58.6c-2.016-0.864-4.38,0.084-5.244,2.116c-0.868,2.036,0.08,4.384,2.116,5.248
			C437.268,70.388,444,80.468,444,91.64v12.24c0,2.208,1.788,4,4,4c2.212,0,4-1.792,4.004-4V91.64
			C452.004,77.248,443.364,64.28,429.988,58.6z"/>
	</g>
</g>
<g>
	<g>
		<path d="M180,55.88H36c-19.852,0-36,16.04-36,35.76v316.24c0,2.208,1.788,4,4,4s4-1.792,4-4V91.64c0-15.308,12.564-27.76,28-27.76
			h144c2.212,0,4-1.792,4-4S182.212,55.88,180,55.88z"/>
	</g>
</g>
<g>
	<g>
		<path d="M451.724,107.16c-1.288-10.236-6.964-19.464-15.576-25.312c-1.824-1.24-4.312-0.764-5.556,1.06
			c-1.24,1.828-0.764,4.316,1.064,5.556c6.708,4.556,11.128,11.732,12.128,19.688c0.252,2.02,1.976,3.5,3.964,3.5
			c0.164,0,0.332-0.012,0.508-0.024C450.448,111.352,452,109.352,451.724,107.16z"/>
	</g>
</g>
<g>
	<g>
		<path d="M92,75.88H36c-2.212,0-4,1.792-4,4s1.788,4,4,4h56c2.212,0,4-1.792,4-4S94.212,75.88,92,75.88z"/>
	</g>
</g>
<g>
	<g>
		<path d="M492,263.88H340c-11.028,0-20,8.972-20,20v64c0,11.028,8.972,20,20,20h152c11.028,0,20-8.972,20-20v-64
			C512,272.852,503.028,263.88,492,263.88z M504,347.88c0,6.616-5.384,12-12,12H340c-6.616,0-12-5.384-12-12v-64
			c0-6.616,5.384-12,12-12h152c6.616,0,12,5.384,12,12V347.88z"/>
	</g>
</g>
<g>
	<g>
		<path d="M372,283.64c-17.644,0-32,14.356-32,32c0,17.644,14.356,32,32,32c17.644,0,32-14.356,32-32
			C404,297.996,389.644,283.64,372,283.64z M372,339.64c-13.236,0-24-10.764-24-24c0-13.236,10.764-24,24-24
			c13.236,0,24,10.764,24,24C396,328.876,385.236,339.64,372,339.64z"/>
	</g>
</g>
<g>
	<g>
		<path d="M384,311.64c-2.212,0-4,1.792-4,4c0,4.412-3.588,8-8,8s-8-3.588-8-8s3.588-8,8-8c2.212,0,4-1.792,4-4s-1.788-4-4-4
			c-8.824,0-16,7.176-16,16c0,8.824,7.176,16,16,16c8.824,0,16-7.176,16-16C388,313.432,386.212,311.64,384,311.64z"/>
	</g>
</g>
<g>
	<g>
		<path d="M440,359.88c-2.212,0-4,1.792-4,4v87.764c0,2.256-1.868,4.236-4,4.236H36c-15.436,0-28-12.56-28-28c0-2.208-1.788-4-4-4
			s-4,1.792-4,4c0,19.848,16.148,36,36,36h396c6.504,0,12-5.604,12-12.236V363.88C444,361.672,442.212,359.88,440,359.88z"/>
	</g>
</g>
<g>
	<g>
		<path d="M432,171.88H36c-2.212,0-4,1.792-4,4s1.788,4,4,4h396c2.244,0,4,1.652,4,3.764v60.236c0,2.208,1.788,4,4,4
			c2.212,0,4-1.792,4-4v-60.236C444,177.048,438.732,171.88,432,171.88z"/>
	</g>
</g>
<g>
	<g>
		<path d="M38,103.644c-5.516,0-10-4.488-10-10c0-5.512,4.484-10,10-10c2.212,0,4-1.792,4-4s-1.788-4-4-4c-9.924,0-18,8.076-18,18
			s8.076,18,18,18c2.212,0,4-1.792,4-4S40.212,103.644,38,103.644z"/>
	</g>
</g>
<g>
	<g>
		<path d="M443.032,106.728L418.788,3.208c-0.24-1.032-0.884-1.928-1.784-2.488c-0.904-0.56-1.996-0.736-3.024-0.496L24.576,91.744
			c-2.152,0.508-3.484,2.66-2.98,4.812c0.508,2.152,2.684,3.48,4.808,2.98L411.908,8.932l23.328,99.62
			c0.436,1.844,2.076,3.088,3.892,3.088c0.3,0,0.612-0.032,0.92-0.104C442.2,111.032,443.536,108.88,443.032,106.728z"/>
	</g>
</g>
<g>
	<g>
		<path d="M409.912,106.74l-7.7-32.884c-0.24-1.036-0.88-1.928-1.784-2.488c-0.908-0.56-1.992-0.736-3.02-0.496
			c-15.624,3.652-31.272-6.068-34.924-21.672c-0.24-1.036-0.88-1.928-1.784-2.488c-0.908-0.56-1.98-0.736-3.024-0.496
			l-245.62,57.528c-2.148,0.504-3.484,2.656-2.98,4.808c0.504,2.152,2.636,3.492,4.808,2.984l241.932-56.664
			c5.74,16.372,22.236,26.616,39.472,24.496l6.836,29.196c0.436,1.844,2.076,3.088,3.892,3.088c0.3,0,0.608-0.032,0.912-0.104
			C409.08,111.044,410.416,108.892,409.912,106.74z"/>
	</g>
</g>
<g>
	<g>
		<path d="M250.456,94.948c-14.772-11.776-31.316-16.288-46.572-12.712c-12.452,2.92-23.24,10.948-31.192,23.216
			c-1.204,1.852-0.676,4.328,1.18,5.532c0.672,0.436,1.424,0.644,2.172,0.644c1.308,0,2.592-0.644,3.364-1.828
			c6.808-10.5,15.904-17.34,26.308-19.776c12.804-3,26.94,0.96,39.756,11.176c1.72,1.384,4.24,1.092,5.62-0.632
			C252.468,98.84,252.188,96.324,250.456,94.948z"/>
	</g>
</g>
<g>
	<g>
		<path d="M397.956,55.68l-3.28-14.012c-0.504-2.152-2.66-3.496-4.804-2.984c-2.152,0.504-3.488,2.656-2.984,4.808l3.28,14.012
			c0.436,1.844,2.076,3.088,3.892,3.088c0.3,0,0.608-0.032,0.912-0.104C397.124,59.984,398.46,57.832,397.956,55.68z"/>
	</g>
</g>
<g>
	<g>
		<path d="M394.672,41.676c-0.5-2.152-2.66-3.496-4.804-2.984l-13.344,3.12c-2.152,0.5-3.488,2.652-2.984,4.804
			c0.432,1.844,2.076,3.088,3.892,3.088c0.304,0,0.612-0.036,0.912-0.104l13.344-3.12C393.84,45.98,395.176,43.828,394.672,41.676z"
			/>
	</g>
</g>
<g>
</g>
<g>
</g>
<g>
</g>
<g>
</g>
<g>
</g>
<g>
</g>
<g>
</g>
<g>
</g>
<g>
</g>
<g>
</g>
<g>
</g>
<g>
</g>
<g>
</g>
<g>
</g>
<g>
</g>
</svg>
