<svg width="20" height="20" viewBox="0 0 15 15" fill="none" xmlns="http://www.w3.org/2000/svg">
<path d="M7.49992 2.44565C7.67926 2.44565 7.826 2.29891 7.826 2.11956V1.95652C7.826 1.77717 7.67926 1.63043 7.49992 1.63043C7.32057 1.63043 7.17383 1.77717 7.17383 1.95652V2.11956C7.17383 2.29891 7.32057 2.44565 7.49992 2.44565Z" fill="#FF9846"/>
<path d="M7.49992 12.5544C7.32057 12.5544 7.17383 12.7011 7.17383 12.8804V13.0435C7.17383 13.2228 7.32057 13.3696 7.49992 13.3696C7.67926 13.3696 7.826 13.2228 7.826 13.0435V12.8804C7.826 12.7011 7.67926 12.5544 7.49992 12.5544Z" fill="#FF9846"/>
<path d="M2.1195 7.17392H1.95646C1.77711 7.17392 1.63037 7.32066 1.63037 7.50001C1.63037 7.67935 1.77711 7.82609 1.95646 7.82609H2.1195C2.29885 7.82609 2.44559 7.67935 2.44559 7.50001C2.44559 7.32066 2.29885 7.17392 2.1195 7.17392Z" fill="#FF9846"/>
<path d="M13.0433 7.17392H12.8803C12.7009 7.17392 12.5542 7.32066 12.5542 7.50001C12.5542 7.67935 12.7009 7.82609 12.8803 7.82609H13.0433C13.2227 7.82609 13.3694 7.67935 13.3694 7.50001C13.3694 7.32066 13.2227 7.17392 13.0433 7.17392Z" fill="#FF9846"/>
<path d="M3.81509 3.35869C3.68466 3.22826 3.489 3.22826 3.35857 3.35869C3.22813 3.48913 3.22813 3.68478 3.35857 3.81521L3.4727 3.92934C3.53792 3.99456 3.61944 4.02717 3.70096 4.02717C3.78248 4.02717 3.864 3.99456 3.92922 3.92934C4.05966 3.79891 4.05966 3.60326 3.92922 3.47282L3.81509 3.35869Z" fill="#FF9846"/>
<path d="M3.4727 11.0707L3.35857 11.1848C3.22813 11.3152 3.22813 11.5109 3.35857 11.6413C3.42379 11.7065 3.50531 11.7391 3.58683 11.7391C3.66835 11.7391 3.74987 11.7065 3.81509 11.6413L3.92922 11.5272C4.05966 11.3967 4.05966 11.2011 3.92922 11.0707C3.79879 10.9402 3.60313 10.9402 3.4727 11.0707Z" fill="#FF9846"/>
<path d="M11.1846 3.35869L11.0705 3.47282C10.94 3.60326 10.94 3.79891 11.0705 3.92934C11.1357 3.99456 11.2172 4.02717 11.2987 4.02717C11.3803 4.02717 11.4618 3.99456 11.527 3.92934L11.6411 3.81521C11.7716 3.68478 11.7716 3.48913 11.6411 3.35869C11.5107 3.22826 11.315 3.22826 11.1846 3.35869Z" fill="#FF9846"/>
<path d="M7.826 7.36956V4.40217C7.826 4.22282 7.67926 4.07608 7.49992 4.07608C7.32057 4.07608 7.17383 4.22282 7.17383 4.40217V7.49999C7.17383 7.58152 7.20644 7.66304 7.27165 7.72826L10.8423 11.2989C10.9075 11.3641 10.989 11.3967 11.0706 11.3967C11.1521 11.3967 11.2336 11.3641 11.2988 11.2989C11.4293 11.1685 11.4293 10.9728 11.2988 10.8424L7.826 7.36956Z" fill="#FF9846"/>
<path d="M7.5 0C3.3587 0 0 3.3587 0 7.5C0 11.6413 3.3587 15 7.5 15C11.6413 15 15 11.6413 15 7.5C15 3.3587 11.6413 0 7.5 0ZM7.5 14.3478C3.71739 14.3478 0.652174 11.2826 0.652174 7.5C0.652174 3.71739 3.71739 0.652174 7.5 0.652174C11.2826 0.652174 14.3478 3.71739 14.3478 7.5C14.3478 11.2826 11.2826 14.3478 7.5 14.3478Z" fill="#FF9846"/>
</svg>
