<?xml version="1.0" encoding="iso-8859-1"?>
<!-- Generator: Adobe Illustrator 19.0.0, SVG Export Plug-In . SVG Version: 6.00 Build 0)  -->
<svg width='30px' height='30px' version="1.1" id="Layer_1" xmlns="http://www.w3.org/2000/svg" xmlns:xlink="http://www.w3.org/1999/xlink" x="0px" y="0px"
	 viewBox="0 0 512.003 512.003" style="enable-background:new 0 0 512.003 512.003;" xml:space="preserve">
<g>
	<g>
		<path d="M331.855,148.627c-0.563-1.877-2.048-4.497-5.862-6.4c-1.877-0.922-3.738-1.399-5.564-1.399
			c-2.859,0-6.963,1.152-10.163,6.596L183.23,350.978c-2.321,3.396-3.174,6.673-2.534,9.728c0.401,1.903,1.613,4.651,5.163,6.878
			c1.911,1.178,3.9,1.775,5.896,1.775c3.84,0,7.296-2.099,10.479-6.502l128.094-205.005
			C332.205,154.574,332.717,151.477,331.855,148.627z"/>
	</g>
</g>
<g>
	<g>
		<path d="M234.643,165.949c-10.214-10.001-22.886-15.104-37.692-15.104c-15.002,0-27.776,5.103-38.05,15.172
			c-10.027,10.223-15.104,23.023-15.104,37.973c0,14.797,5.188,27.503,15.386,37.675c10.24,10.453,22.938,15.778,37.76,15.778
			c14.635,0.009,27.247-5.316,37.419-15.693c10.453-10.223,15.735-22.929,15.735-37.751
			C250.097,189.024,244.909,176.223,234.643,165.949z M215.793,222.85c-5.376,5.402-11.529,8.004-18.825,8.004
			c-7.663,0-13.901-2.603-19.089-7.979c-5.035-5.171-7.484-11.247-7.484-18.603c0-7.723,2.449-13.978,7.45-19.123
			c4.983-5.001,11.23-7.424,19.115-7.424c7.526,0,13.696,2.449,18.901,7.501c5.35,5.171,7.953,11.401,7.953,19.046
			C223.814,211.551,221.212,217.602,215.793,222.85z"/>
	</g>
</g>
<g>
	<g>
		<path d="M356.09,267.957c-10.223-10.001-22.912-15.104-37.7-15.104c-14.984,0-27.759,5.103-37.973,15.104
			c-10.266,10.052-15.462,22.75-15.462,37.777c0,14.797,5.188,27.503,15.428,37.726c10.411,10.402,23.202,15.701,38.016,15.701
			c14.822,0,27.529-5.299,37.726-15.701c10.24-10.249,15.428-22.929,15.428-37.726C371.552,290.732,366.355,278.035,356.09,267.957z
			 M337.188,324.601c-5.197,5.35-11.349,7.953-18.799,7.953s-13.602-2.603-18.85-8.004c-5.188-5.171-7.714-11.349-7.714-18.825
			c0-7.526,2.449-13.722,7.424-18.85c5.197-5.197,11.46-7.723,19.14-7.723c7.484,0,13.653,2.526,18.901,7.774
			c5.154,5.001,7.663,11.153,7.663,18.799C344.954,313.201,342.428,319.353,337.188,324.601z"/>
	</g>
</g>
<g>
	<g>
		<path d="M506.985,240.787l-22.366-30.259l9.088-36.514c2.714-10.914-2.005-22.323-11.648-28.117L449.811,126.5l-5.581-37.214
			c-1.664-11.119-10.402-19.857-21.521-21.521l-37.214-5.581l-19.396-32.247c-4.702-7.825-13.107-12.407-21.931-12.407
			c-2.048,0-4.13,0.247-6.187,0.759l-36.514,9.088L271.209,5.011c-4.514-3.337-9.856-5.009-15.206-5.009s-10.692,1.673-15.215,5.009
			l-30.259,22.366l-36.514-9.088c-2.057-0.512-4.13-0.759-6.187-0.759c-8.832,0-17.229,4.591-21.939,12.407l-19.396,32.247
			l-37.205,5.581c-11.119,1.664-19.849,10.402-21.521,21.521L62.185,126.5l-32.247,19.396c-9.634,5.794-14.362,17.203-11.648,28.117
			l9.088,36.514L5.011,240.787c-6.682,9.045-6.682,21.393,0,30.438l22.366,30.259l-9.088,36.514
			c-2.714,10.914,2.005,22.323,11.648,28.117l32.247,19.396l5.581,37.214c1.664,11.119,10.402,19.857,21.521,21.521l37.205,5.581
			l19.396,32.247c4.702,7.825,13.107,12.407,21.939,12.407c2.048,0,4.122-0.247,6.187-0.759l36.514-9.088l30.259,22.366
			c4.523,3.328,9.865,5.001,15.215,5.001s10.692-1.672,15.215-5.009l30.259-22.366l36.514,9.088c2.057,0.512,4.13,0.759,6.187,0.759
			c8.832,0,17.229-4.591,21.931-12.407l19.396-32.247l37.214-5.581c11.119-1.664,19.857-10.394,21.521-21.521l5.581-37.214
			l32.247-19.396c9.634-5.794,14.362-17.203,11.648-28.117l-9.088-36.514l22.366-30.259
			C513.675,262.18,513.675,249.824,506.985,240.787z M456.868,295.955l11.998,48.213l-42.573,25.609l-7.373,49.135l-49.135,7.364
			l-25.609,42.581l-48.213-11.998l-39.962,29.542l-39.953-29.534l-48.213,11.998l-25.609-42.581l-49.135-7.364l-7.364-49.135
			l-42.573-25.609l11.998-48.213l-29.551-39.962l29.534-39.953l-11.998-48.213l42.573-25.609l7.364-49.135l49.135-7.364
			l25.609-42.581l48.213,11.998l39.97-29.542l39.953,29.534l48.213-11.998l25.609,42.581l49.135,7.364l7.373,49.135l42.573,25.609
			L456.86,216.04l29.542,39.962L456.868,295.955z"/>
	</g>
</g>
<g>
	<g>
		<path d="M256.002,76.802c-98.807,0-179.2,80.384-179.2,179.2s80.393,179.2,179.2,179.2s179.2-80.384,179.2-179.2
			S354.81,76.802,256.002,76.802z M256.002,409.602c-84.83,0-153.6-68.77-153.6-153.6s68.77-153.6,153.6-153.6
			s153.6,68.77,153.6,153.6S340.832,409.602,256.002,409.602z"/>
	</g>
</g>
<g>
</g>
<g>
</g>
<g>
</g>
<g>
</g>
<g>
</g>
<g>
</g>
<g>
</g>
<g>
</g>
<g>
</g>
<g>
</g>
<g>
</g>
<g>
</g>
<g>
</g>
<g>
</g>
<g>
</g>
</svg>
