<?xml version="1.0" encoding="iso-8859-1"?>
<!-- Generator: Adobe Illustrator 18.1.1, SVG Export Plug-In . SVG Version: 6.00 Build 0)  -->
<svg width="40px" version="1.1" id="Capa_1" xmlns="http://www.w3.org/2000/svg" xmlns:xlink="http://www.w3.org/1999/xlink" x="0px" y="0px"
	 viewBox="0 0 612 612" style="enable-background:new 0 0 612 612;" xml:space="preserve">
<g>
	<path d="M459.124,319.545l-13.868-83.644h-17.788c-5.692-57.686-51.704-103.697-109.391-109.39V77.572L426.021,21.43L414.873,0
		l-120.95,62.909v63.604c-57.686,5.692-103.697,51.704-109.391,109.39h-17.79l-13.866,83.644h27.311L217.248,612H394.75
		l37.063-292.453h27.311V319.545z M424.777,260.059l5.858,35.331H318.079v-35.331H424.777z M403.143,235.903h-85.066v-85.064
		C362.425,156.322,397.66,191.555,403.143,235.903z M293.923,150.839v85.064h-85.064
		C214.34,191.556,249.575,156.322,293.923,150.839z M187.225,260.059h106.698v35.331H181.368L187.225,260.059z M293.923,319.545
		v25.894h-86.104l-3.282-25.894H293.923z M373.463,587.843H238.538l-27.659-218.248h83.043v202.731h24.157V369.596h83.043
		L373.463,587.843z M404.182,345.439h-86.104v-25.894h89.386L404.182,345.439z"/>
</g>
<g>
</g>
<g>
</g>
<g>
</g>
<g>
</g>
<g>
</g>
<g>
</g>
<g>
</g>
<g>
</g>
<g>
</g>
<g>
</g>
<g>
</g>
<g>
</g>
<g>
</g>
<g>
</g>
<g>
</g>
</svg>
